<svg width="16" height="16" viewBox="0 0 16 16" fill="none" xmlns="http://www.w3.org/2000/svg">
<g clip-path="url(#clip0_462_164)">
<path d="M13.3333 14.6667H2.66667C2.48986 14.6667 2.32029 14.5965 2.19526 14.4714C2.07024 14.3464 2 14.1769 2 14V2.00004C2 1.82323 2.07024 1.65366 2.19526 1.52864C2.32029 1.40361 2.48986 1.33337 2.66667 1.33337H13.3333C13.5101 1.33337 13.6797 1.40361 13.8047 1.52864C13.9298 1.65366 14 1.82323 14 2.00004V14C14 14.1769 13.9298 14.3464 13.8047 14.4714C13.6797 14.5965 13.5101 14.6667 13.3333 14.6667ZM12.6667 13.3334V2.66671H3.33333V13.3334H12.6667ZM5.33333 4.66671H10.6667V6.00004H5.33333V4.66671ZM5.33333 7.33337H10.6667V8.66671H5.33333V7.33337ZM5.33333 10H10.6667V11.3334H5.33333V10Z" fill="currentColor"/>
</g>
<defs>
<clipPath id="clip0_462_164">
<rect width="16" height="16" fill="white"/>
</clipPath>
</defs>
</svg>
